<?xml version="1.0" encoding="UTF-8"?>
<svg xmlns="http://www.w3.org/2000/svg" xmlns:xlink="http://www.w3.org/1999/xlink" width="112.5pt" height="30.000001pt" viewBox="0 0 112.5 30.000001" version="1.2">
<defs>
<clipPath id="clip1">
  <path d="M 10.058594 10 L 22 10 L 22 20 L 10.058594 20 Z M 10.058594 10 "/>
</clipPath>
<clipPath id="clip2">
  <path d="M 20 6.601562 L 33 6.601562 L 33 20 L 20 20 Z M 20 6.601562 "/>
</clipPath>
<clipPath id="clip3">
  <path d="M 49 10 L 62 10 L 62 22.640625 L 49 22.640625 Z M 49 10 "/>
</clipPath>
<clipPath id="clip4">
  <path d="M 60 6.601562 L 72 6.601562 L 72 20 L 60 20 Z M 60 6.601562 "/>
</clipPath>
<clipPath id="clip5">
  <path d="M 90 6.601562 L 102.644531 6.601562 L 102.644531 20 L 90 20 Z M 90 6.601562 "/>
</clipPath>
</defs>
<g id="surface1">
<g clip-path="url(#clip1)" clip-rule="nonzero">
<path style=" stroke:none;fill-rule:nonzero;fill:rgb(100%,100%,100%);fill-opacity:1;" d="M 16.832031 10.355469 C 18.367188 10.355469 19.496094 10.667969 20.21875 11.289062 C 20.949219 11.910156 21.316406 12.726562 21.316406 13.734375 C 21.316406 14.074219 21.273438 14.453125 21.183594 14.871094 C 20.96875 15.800781 20.566406 16.617188 19.980469 17.316406 C 19.394531 18.007812 18.671875 18.546875 17.8125 18.929688 C 16.96875 19.304688 16.046875 19.492188 15.054688 19.492188 C 13.488281 19.492188 12.324219 19.179688 11.570312 18.558594 C 10.824219 17.921875 10.453125 17.085938 10.453125 16.042969 C 10.453125 15.691406 10.496094 15.300781 10.589844 14.871094 C 10.800781 13.988281 11.207031 13.207031 11.808594 12.527344 C 12.414062 11.839844 13.15625 11.304688 14.023438 10.933594 C 14.902344 10.546875 15.839844 10.355469 16.832031 10.355469 Z M 16.78125 11.867188 C 16.546875 11.867188 16.292969 12.082031 16.019531 12.511719 C 15.761719 12.929688 15.449219 13.730469 15.089844 14.90625 C 14.730469 16.082031 14.546875 16.910156 14.546875 17.386719 C 14.546875 17.636719 14.585938 17.804688 14.667969 17.894531 C 14.746094 17.972656 14.851562 18.015625 14.988281 18.015625 C 15.226562 18.035156 15.46875 17.832031 15.714844 17.402344 C 15.976562 16.972656 16.296875 16.136719 16.679688 14.890625 C 17.03125 13.792969 17.207031 12.992188 17.207031 12.496094 C 17.207031 12.257812 17.164062 12.09375 17.085938 12.003906 C 17.019531 11.910156 16.917969 11.867188 16.78125 11.867188 Z M 16.78125 11.867188 "/>
</g>
<g clip-path="url(#clip2)" clip-rule="nonzero">
<path style=" stroke:none;fill-rule:nonzero;fill:rgb(100%,100%,100%);fill-opacity:1;" d="M 31.433594 16.996094 C 31.410156 17.039062 31.398438 17.109375 31.398438 17.199219 C 31.398438 17.277344 31.414062 17.339844 31.449219 17.386719 C 31.496094 17.429688 31.550781 17.453125 31.617188 17.453125 C 31.753906 17.453125 31.867188 17.398438 31.957031 17.285156 C 32.058594 17.160156 32.125 17.097656 32.160156 17.097656 C 32.21875 17.097656 32.261719 17.136719 32.296875 17.214844 C 32.328125 17.285156 32.347656 17.367188 32.347656 17.472656 C 32.359375 17.800781 32.25 18.121094 32.023438 18.4375 C 31.800781 18.746094 31.464844 19 31.027344 19.203125 C 30.597656 19.394531 30.078125 19.492188 29.46875 19.492188 C 28.726562 19.492188 28.132812 19.320312 27.691406 18.980469 C 27.253906 18.632812 27.027344 18.167969 27.015625 17.589844 C 27.015625 17.171875 27.117188 16.699219 27.320312 16.179688 L 28.25 13.734375 C 28.308594 13.585938 28.335938 13.46875 28.335938 13.378906 C 28.335938 13.230469 28.285156 13.117188 28.183594 13.039062 C 28.09375 12.949219 27.980469 12.902344 27.84375 12.902344 C 27.628906 12.902344 27.410156 13.003906 27.183594 13.207031 C 26.972656 13.402344 26.796875 13.71875 26.660156 14.160156 L 26.660156 14.125 L 25.59375 17.574219 C 25.558594 17.707031 25.542969 17.828125 25.542969 17.929688 C 25.542969 18.078125 25.570312 18.195312 25.628906 18.285156 C 25.683594 18.363281 25.761719 18.445312 25.863281 18.523438 C 25.945312 18.601562 26 18.671875 26.035156 18.726562 C 26.066406 18.773438 26.074219 18.835938 26.050781 18.914062 C 25.996094 19.0625 25.882812 19.167969 25.710938 19.238281 C 25.542969 19.304688 25.285156 19.339844 24.933594 19.339844 L 21.074219 19.339844 C 20.78125 19.339844 20.566406 19.292969 20.433594 19.203125 C 20.296875 19.101562 20.253906 18.972656 20.296875 18.8125 C 20.34375 18.675781 20.460938 18.558594 20.652344 18.457031 C 20.820312 18.363281 20.964844 18.257812 21.074219 18.132812 C 21.1875 18.007812 21.285156 17.808594 21.363281 17.539062 L 23.9375 9.066406 C 23.96875 8.960938 23.988281 8.878906 23.988281 8.808594 C 23.988281 8.683594 23.953125 8.582031 23.886719 8.503906 C 23.828125 8.425781 23.75 8.34375 23.648438 8.265625 C 23.535156 8.175781 23.449219 8.097656 23.394531 8.027344 C 23.347656 7.960938 23.34375 7.871094 23.378906 7.757812 C 23.445312 7.496094 23.800781 7.269531 24.445312 7.078125 C 25.085938 6.886719 25.757812 6.789062 26.457031 6.789062 C 27.113281 6.789062 27.589844 6.914062 27.894531 7.164062 C 28.210938 7.410156 28.371094 7.75 28.371094 8.179688 C 28.371094 8.429688 28.332031 8.675781 28.25 8.910156 L 27.335938 11.902344 C 27.777344 11.324219 28.238281 10.921875 28.726562 10.695312 C 29.222656 10.46875 29.757812 10.355469 30.332031 10.355469 C 31.019531 10.355469 31.574219 10.566406 31.992188 10.984375 C 32.421875 11.402344 32.632812 11.945312 32.632812 12.613281 C 32.632812 12.964844 32.578125 13.308594 32.464844 13.648438 Z M 31.433594 16.996094 "/>
</g>
<path style=" stroke:none;fill-rule:nonzero;fill:rgb(100%,100%,100%);fill-opacity:1;" d="M 49.167969 16.996094 C 49.144531 17.039062 49.132812 17.109375 49.132812 17.199219 C 49.132812 17.277344 49.152344 17.339844 49.183594 17.386719 C 49.230469 17.429688 49.285156 17.453125 49.355469 17.453125 C 49.488281 17.453125 49.601562 17.398438 49.691406 17.285156 C 49.792969 17.160156 49.863281 17.097656 49.894531 17.097656 C 49.953125 17.097656 49.996094 17.136719 50.03125 17.214844 C 50.066406 17.285156 50.082031 17.367188 50.082031 17.472656 C 50.09375 17.800781 49.984375 18.121094 49.761719 18.4375 C 49.535156 18.746094 49.203125 19 48.761719 19.203125 C 48.332031 19.394531 47.8125 19.492188 47.203125 19.492188 C 46.460938 19.492188 45.867188 19.320312 45.425781 18.980469 C 44.988281 18.632812 44.761719 18.167969 44.75 17.589844 C 44.75 17.171875 44.851562 16.699219 45.054688 16.179688 L 45.984375 13.734375 C 46.042969 13.585938 46.070312 13.46875 46.070312 13.378906 C 46.070312 13.230469 46.019531 13.117188 45.917969 13.039062 C 45.828125 12.949219 45.714844 12.902344 45.578125 12.902344 C 45.386719 12.902344 45.191406 12.988281 44.988281 13.15625 C 44.785156 13.328125 44.605469 13.59375 44.445312 13.957031 L 43.515625 16.996094 C 43.492188 17.039062 43.480469 17.109375 43.480469 17.199219 C 43.480469 17.277344 43.5 17.339844 43.53125 17.386719 C 43.578125 17.429688 43.632812 17.453125 43.703125 17.453125 C 43.835938 17.453125 43.949219 17.398438 44.039062 17.285156 C 44.140625 17.160156 44.210938 17.097656 44.242188 17.097656 C 44.300781 17.097656 44.34375 17.136719 44.378906 17.214844 C 44.414062 17.285156 44.429688 17.367188 44.429688 17.472656 C 44.441406 17.800781 44.332031 18.121094 44.109375 18.4375 C 43.882812 18.746094 43.550781 19 43.109375 19.203125 C 42.679688 19.394531 42.160156 19.492188 41.550781 19.492188 C 40.808594 19.492188 40.214844 19.320312 39.773438 18.980469 C 39.335938 18.632812 39.109375 18.167969 39.097656 17.589844 C 39.097656 17.171875 39.199219 16.699219 39.402344 16.179688 L 40.332031 13.734375 C 40.390625 13.585938 40.417969 13.46875 40.417969 13.378906 C 40.417969 13.230469 40.367188 13.117188 40.265625 13.039062 C 40.175781 12.949219 40.0625 12.902344 39.925781 12.902344 C 39.734375 12.902344 39.539062 12.988281 39.335938 13.15625 C 39.132812 13.316406 38.964844 13.574219 38.828125 13.9375 L 37.710938 17.574219 C 37.664062 17.695312 37.644531 17.816406 37.644531 17.929688 C 37.644531 18.066406 37.671875 18.179688 37.726562 18.269531 C 37.785156 18.347656 37.863281 18.433594 37.964844 18.523438 C 38.042969 18.589844 38.101562 18.652344 38.132812 18.710938 C 38.167969 18.765625 38.171875 18.835938 38.152344 18.914062 C 38.105469 19.0625 38 19.167969 37.828125 19.238281 C 37.660156 19.304688 37.394531 19.339844 37.035156 19.339844 L 33.175781 19.339844 C 32.882812 19.339844 32.671875 19.292969 32.550781 19.203125 C 32.414062 19.101562 32.363281 18.972656 32.398438 18.8125 C 32.441406 18.675781 32.558594 18.558594 32.753906 18.457031 C 32.921875 18.363281 33.0625 18.257812 33.175781 18.132812 C 33.289062 18.007812 33.382812 17.808594 33.464844 17.539062 L 34.96875 12.628906 C 34.992188 12.574219 35.003906 12.496094 35.003906 12.394531 C 35.003906 12.269531 34.976562 12.171875 34.917969 12.105469 C 34.875 12.035156 34.792969 11.953125 34.679688 11.851562 C 34.570312 11.757812 34.488281 11.679688 34.445312 11.613281 C 34.398438 11.542969 34.394531 11.453125 34.425781 11.339844 C 34.496094 11.078125 34.851562 10.851562 35.492188 10.660156 C 36.136719 10.457031 36.808594 10.355469 37.507812 10.355469 C 38.058594 10.355469 38.496094 10.507812 38.8125 10.8125 C 39.136719 11.121094 39.296875 11.539062 39.285156 12.070312 C 39.746094 11.425781 40.230469 10.976562 40.738281 10.730469 C 41.257812 10.480469 41.816406 10.355469 42.414062 10.355469 C 43.070312 10.355469 43.601562 10.546875 44.007812 10.933594 C 44.421875 11.304688 44.65625 11.796875 44.699219 12.410156 C 45.183594 11.640625 45.703125 11.109375 46.257812 10.8125 C 46.808594 10.507812 47.414062 10.355469 48.066406 10.355469 C 48.753906 10.355469 49.308594 10.566406 49.726562 10.984375 C 50.15625 11.402344 50.367188 11.945312 50.367188 12.613281 C 50.367188 12.964844 50.3125 13.308594 50.199219 13.648438 Z M 49.167969 16.996094 "/>
<g clip-path="url(#clip3)" clip-rule="nonzero">
<path style=" stroke:none;fill-rule:nonzero;fill:rgb(100%,100%,100%);fill-opacity:1;" d="M 59.609375 10.355469 C 60.105469 10.355469 60.503906 10.558594 60.796875 10.964844 C 61.101562 11.363281 61.253906 11.90625 61.253906 12.597656 C 61.253906 13.195312 61.144531 13.84375 60.929688 14.53125 C 60.511719 15.925781 59.84375 17.238281 58.917969 18.472656 C 58.003906 19.707031 56.949219 20.699219 55.753906 21.445312 C 54.566406 22.191406 53.382812 22.566406 52.199219 22.566406 C 51.613281 22.566406 51.105469 22.464844 50.675781 22.257812 C 50.257812 22.054688 49.941406 21.785156 49.726562 21.445312 C 49.5 21.105469 49.390625 20.742188 49.390625 20.359375 C 49.390625 20.1875 49.417969 20 49.472656 19.796875 C 49.574219 19.480469 49.746094 19.238281 49.980469 19.066406 C 50.21875 18.898438 50.5 18.8125 50.828125 18.8125 C 51.347656 18.8125 51.769531 18.988281 52.097656 19.339844 C 52.433594 19.699219 52.648438 20.195312 52.738281 20.816406 C 53.460938 20.78125 54.128906 20.472656 54.738281 19.882812 C 54.160156 19.78125 53.734375 19.585938 53.449219 19.304688 C 53.179688 19.011719 52.992188 18.558594 52.890625 17.945312 L 52.214844 13.785156 C 52.179688 13.570312 52.128906 13.421875 52.0625 13.34375 C 52.007812 13.253906 51.925781 13.207031 51.824219 13.207031 C 51.746094 13.207031 51.652344 13.246094 51.539062 13.328125 C 51.4375 13.40625 51.363281 13.445312 51.316406 13.445312 C 51.226562 13.445312 51.183594 13.351562 51.183594 13.15625 C 51.183594 13 51.210938 12.828125 51.265625 12.648438 C 51.46875 12.003906 51.847656 11.460938 52.402344 11.015625 C 52.953125 10.566406 53.597656 10.339844 54.332031 10.339844 C 55.050781 10.339844 55.582031 10.554688 55.921875 10.984375 C 56.269531 11.414062 56.496094 12.074219 56.597656 12.96875 L 57.105469 16.707031 C 57.140625 16.988281 57.242188 17.132812 57.410156 17.132812 C 57.613281 17.132812 57.851562 16.949219 58.121094 16.585938 C 58.390625 16.214844 58.65625 15.6875 58.917969 15.007812 C 58.578125 14.703125 58.320312 14.351562 58.136719 13.957031 C 57.957031 13.558594 57.867188 13.132812 57.867188 12.683594 C 57.867188 12.332031 57.914062 12.015625 58.003906 11.730469 C 58.136719 11.277344 58.347656 10.9375 58.628906 10.710938 C 58.921875 10.472656 59.25 10.355469 59.609375 10.355469 Z M 59.609375 10.355469 "/>
</g>
<g clip-path="url(#clip4)" clip-rule="nonzero">
<path style=" stroke:none;fill-rule:nonzero;fill:rgb(100%,100%,100%);fill-opacity:1;" d="M 68.039062 6.789062 C 69.246094 6.789062 70.148438 6.976562 70.75 7.347656 C 71.355469 7.710938 71.660156 8.160156 71.660156 8.691406 C 71.660156 9.121094 71.480469 9.457031 71.121094 9.691406 C 70.769531 9.917969 70.308594 10.03125 69.734375 10.03125 C 69.203125 10.03125 68.789062 9.902344 68.496094 9.640625 C 68.203125 9.382812 68.058594 9.058594 68.058594 8.675781 C 68.058594 8.4375 68.128906 8.1875 68.277344 7.925781 C 67.9375 7.925781 67.65625 8.011719 67.429688 8.179688 C 67.207031 8.339844 67.03125 8.617188 66.90625 9.011719 C 66.839844 9.261719 66.804688 9.496094 66.804688 9.710938 C 66.804688 9.980469 66.851562 10.195312 66.941406 10.355469 C 67.042969 10.503906 67.183594 10.574219 67.363281 10.574219 L 68.363281 10.574219 C 68.949219 10.574219 69.242188 10.757812 69.242188 11.121094 C 69.242188 11.164062 69.230469 11.234375 69.207031 11.324219 C 69.140625 11.570312 69 11.757812 68.785156 11.882812 C 68.582031 12.007812 68.273438 12.070312 67.855469 12.070312 L 67.347656 12.070312 L 65.671875 17.574219 C 65.636719 17.707031 65.621094 17.828125 65.621094 17.929688 C 65.621094 18.078125 65.648438 18.195312 65.703125 18.285156 C 65.761719 18.363281 65.839844 18.445312 65.941406 18.523438 C 66.019531 18.601562 66.078125 18.671875 66.109375 18.726562 C 66.144531 18.773438 66.152344 18.835938 66.128906 18.914062 C 66.070312 19.0625 65.957031 19.167969 65.789062 19.238281 C 65.621094 19.304688 65.359375 19.339844 65.011719 19.339844 L 61.152344 19.339844 C 60.859375 19.339844 60.644531 19.292969 60.507812 19.203125 C 60.375 19.101562 60.328125 18.972656 60.375 18.8125 C 60.417969 18.675781 60.539062 18.558594 60.730469 18.457031 C 60.898438 18.363281 61.039062 18.257812 61.152344 18.132812 C 61.265625 18.007812 61.363281 17.808594 61.441406 17.539062 L 62.761719 13.191406 C 62.816406 13.019531 62.84375 12.847656 62.84375 12.664062 C 62.84375 12.4375 62.792969 12.261719 62.691406 12.136719 C 62.601562 12.003906 62.460938 11.855469 62.269531 11.695312 C 62.144531 11.59375 62.050781 11.511719 61.980469 11.441406 C 61.925781 11.363281 61.898438 11.273438 61.898438 11.171875 C 61.886719 10.957031 61.960938 10.800781 62.117188 10.710938 C 62.285156 10.621094 62.601562 10.574219 63.066406 10.574219 L 63.488281 10.574219 C 63.410156 10.292969 63.371094 10.011719 63.371094 9.726562 C 63.371094 9.445312 63.421875 9.148438 63.523438 8.84375 C 63.734375 8.265625 64.191406 7.78125 64.894531 7.382812 C 65.601562 6.988281 66.652344 6.789062 68.039062 6.789062 Z M 68.039062 6.789062 "/>
</g>
<path style=" stroke:none;fill-rule:nonzero;fill:rgb(100%,100%,100%);fill-opacity:1;" d="M 74.726562 10.355469 C 76.257812 10.355469 77.386719 10.667969 78.109375 11.289062 C 78.84375 11.910156 79.210938 12.726562 79.210938 13.734375 C 79.210938 14.074219 79.164062 14.453125 79.074219 14.871094 C 78.859375 15.800781 78.460938 16.617188 77.871094 17.316406 C 77.285156 18.007812 76.5625 18.546875 75.707031 18.929688 C 74.859375 19.304688 73.941406 19.492188 72.949219 19.492188 C 71.378906 19.492188 70.21875 19.179688 69.460938 18.558594 C 68.71875 17.921875 68.34375 17.085938 68.34375 16.042969 C 68.34375 15.691406 68.390625 15.300781 68.480469 14.871094 C 68.695312 13.988281 69.101562 13.207031 69.699219 12.527344 C 70.308594 11.839844 71.046875 11.304688 71.914062 10.933594 C 72.796875 10.546875 73.730469 10.355469 74.726562 10.355469 Z M 74.675781 11.867188 C 74.4375 11.867188 74.183594 12.082031 73.914062 12.511719 C 73.652344 12.929688 73.34375 13.730469 72.980469 14.90625 C 72.621094 16.082031 72.441406 16.910156 72.441406 17.386719 C 72.441406 17.636719 72.480469 17.804688 72.558594 17.894531 C 72.636719 17.972656 72.746094 18.015625 72.878906 18.015625 C 73.117188 18.035156 73.359375 17.832031 73.609375 17.402344 C 73.867188 16.972656 74.1875 16.136719 74.574219 14.890625 C 74.921875 13.792969 75.097656 12.992188 75.097656 12.496094 C 75.097656 12.257812 75.058594 12.09375 74.980469 12.003906 C 74.910156 11.910156 74.808594 11.867188 74.675781 11.867188 Z M 74.675781 11.867188 "/>
<path style=" stroke:none;fill-rule:nonzero;fill:rgb(100%,100%,100%);fill-opacity:1;" d="M 85.832031 10.355469 C 87.367188 10.355469 88.492188 10.667969 89.214844 11.289062 C 89.949219 11.910156 90.316406 12.726562 90.316406 13.734375 C 90.316406 14.074219 90.269531 14.453125 90.179688 14.871094 C 89.964844 15.800781 89.566406 16.617188 88.980469 17.316406 C 88.390625 18.007812 87.667969 18.546875 86.8125 18.929688 C 85.964844 19.304688 85.046875 19.492188 84.054688 19.492188 C 82.484375 19.492188 81.324219 19.179688 80.566406 18.558594 C 79.824219 17.921875 79.449219 17.085938 79.449219 16.042969 C 79.449219 15.691406 79.496094 15.300781 79.585938 14.871094 C 79.800781 13.988281 80.207031 13.207031 80.804688 12.527344 C 81.414062 11.839844 82.152344 11.304688 83.023438 10.933594 C 83.902344 10.546875 84.839844 10.355469 85.832031 10.355469 Z M 85.78125 11.867188 C 85.542969 11.867188 85.289062 12.082031 85.019531 12.511719 C 84.757812 12.929688 84.449219 13.730469 84.085938 14.90625 C 83.726562 16.082031 83.546875 16.910156 83.546875 17.386719 C 83.546875 17.636719 83.585938 17.804688 83.664062 17.894531 C 83.742188 17.972656 83.851562 18.015625 83.984375 18.015625 C 84.222656 18.035156 84.464844 17.832031 84.714844 17.402344 C 84.972656 16.972656 85.296875 16.136719 85.679688 14.890625 C 86.027344 13.792969 86.203125 12.992188 86.203125 12.496094 C 86.203125 12.257812 86.164062 12.09375 86.085938 12.003906 C 86.015625 11.910156 85.914062 11.867188 85.78125 11.867188 Z M 85.78125 11.867188 "/>
<g clip-path="url(#clip5)" clip-rule="nonzero">
<path style=" stroke:none;fill-rule:nonzero;fill:rgb(100%,100%,100%);fill-opacity:1;" d="M 99.847656 16.894531 C 99.824219 16.984375 99.8125 17.046875 99.8125 17.082031 C 99.8125 17.160156 99.835938 17.222656 99.882812 17.265625 C 99.925781 17.3125 99.984375 17.335938 100.050781 17.335938 C 100.1875 17.335938 100.296875 17.277344 100.390625 17.164062 C 100.492188 17.039062 100.558594 16.976562 100.59375 16.976562 C 100.648438 16.976562 100.695312 17.019531 100.726562 17.097656 C 100.761719 17.175781 100.777344 17.265625 100.777344 17.367188 C 100.789062 17.675781 100.671875 17.984375 100.421875 18.304688 C 100.1875 18.621094 99.863281 18.878906 99.457031 19.085938 C 99.050781 19.289062 98.613281 19.390625 98.136719 19.390625 C 97.574219 19.390625 97.082031 19.28125 96.664062 19.066406 C 96.25 18.851562 95.960938 18.570312 95.804688 18.21875 C 95.5 18.613281 95.148438 18.910156 94.753906 19.101562 C 94.359375 19.292969 93.941406 19.390625 93.5 19.390625 C 92.980469 19.390625 92.496094 19.257812 92.046875 19 C 91.605469 18.738281 91.25 18.371094 90.980469 17.894531 C 90.71875 17.410156 90.589844 16.859375 90.589844 16.246094 C 90.589844 15.21875 90.78125 14.25 91.164062 13.34375 C 91.5625 12.425781 92.109375 11.691406 92.808594 11.136719 C 93.507812 10.570312 94.300781 10.289062 95.195312 10.289062 C 95.679688 10.289062 96.089844 10.34375 96.429688 10.457031 C 96.777344 10.570312 97.09375 10.738281 97.375 10.964844 L 97.953125 9.066406 C 97.984375 8.960938 98.003906 8.878906 98.003906 8.808594 C 98.003906 8.683594 97.96875 8.582031 97.902344 8.503906 C 97.84375 8.425781 97.765625 8.34375 97.664062 8.265625 C 97.550781 8.175781 97.46875 8.097656 97.410156 8.027344 C 97.367188 7.960938 97.359375 7.871094 97.394531 7.757812 C 97.460938 7.496094 97.816406 7.269531 98.460938 7.078125 C 99.101562 6.886719 99.773438 6.789062 100.472656 6.789062 C 101.128906 6.789062 101.609375 6.914062 101.914062 7.164062 C 102.226562 7.410156 102.386719 7.75 102.386719 8.179688 C 102.386719 8.429688 102.347656 8.675781 102.265625 8.910156 Z M 97.019531 12.121094 C 96.839844 11.960938 96.644531 11.882812 96.429688 11.882812 C 96.101562 11.882812 95.78125 12.128906 95.464844 12.613281 C 95.148438 13.101562 94.894531 13.6875 94.703125 14.378906 C 94.511719 15.070312 94.421875 15.691406 94.433594 16.246094 C 94.433594 16.871094 94.636719 17.183594 95.042969 17.183594 C 95.1875 17.183594 95.3125 17.125 95.414062 17.011719 C 95.515625 16.886719 95.609375 16.691406 95.703125 16.417969 Z M 97.019531 12.121094 "/>
</g>
</g>
</svg>
