<?xml version="1.0" encoding="UTF-8"?>
<svg xmlns="http://www.w3.org/2000/svg" xmlns:xlink="http://www.w3.org/1999/xlink" width="112.5pt" height="30.000001pt" viewBox="0 0 112.5 30.000001" version="1.2">
<defs>
<clipPath id="clip1">
  <path d="M 13 5.136719 L 29 5.136719 L 29 21 L 13 21 Z M 13 5.136719 "/>
</clipPath>
<clipPath id="clip2">
  <path d="M 48 9 L 63 9 L 63 24.089844 L 48 24.089844 Z M 48 9 "/>
</clipPath>
<clipPath id="clip3">
  <path d="M 60 5.136719 L 75 5.136719 L 75 21 L 60 21 Z M 60 5.136719 "/>
</clipPath>
<clipPath id="clip4">
  <path d="M 96 5.136719 L 110.445312 5.136719 L 110.445312 21 L 96 21 Z M 96 5.136719 "/>
</clipPath>
</defs>
<g id="surface1">
<path style=" stroke:none;fill-rule:nonzero;fill:rgb(100%,100%,100%);fill-opacity:1;" d="M 9.550781 9.570312 C 11.363281 9.570312 12.699219 9.941406 13.550781 10.675781 C 14.417969 11.410156 14.851562 12.375 14.851562 13.566406 C 14.851562 13.96875 14.796875 14.414062 14.691406 14.910156 C 14.4375 16.007812 13.964844 16.972656 13.269531 17.800781 C 12.578125 18.617188 11.722656 19.253906 10.710938 19.707031 C 9.710938 20.148438 8.625 20.371094 7.453125 20.371094 C 5.597656 20.371094 4.226562 20 3.332031 19.265625 C 2.453125 18.515625 2.011719 17.527344 2.011719 16.296875 C 2.011719 15.878906 2.066406 15.417969 2.171875 14.910156 C 2.425781 13.867188 2.90625 12.945312 3.613281 12.140625 C 4.332031 11.324219 5.207031 10.695312 6.230469 10.253906 C 7.273438 9.800781 8.378906 9.570312 9.550781 9.570312 Z M 9.492188 11.359375 C 9.210938 11.359375 8.910156 11.613281 8.589844 12.121094 C 8.285156 12.617188 7.917969 13.558594 7.492188 14.949219 C 7.066406 16.34375 6.851562 17.320312 6.851562 17.878906 C 6.851562 18.175781 6.898438 18.375 6.992188 18.484375 C 7.085938 18.578125 7.210938 18.625 7.371094 18.625 C 7.652344 18.648438 7.9375 18.410156 8.230469 17.902344 C 8.539062 17.390625 8.917969 16.402344 9.371094 14.929688 C 9.785156 13.632812 9.992188 12.6875 9.992188 12.101562 C 9.992188 11.820312 9.945312 11.625 9.851562 11.519531 C 9.769531 11.410156 9.652344 11.359375 9.492188 11.359375 Z M 9.492188 11.359375 "/>
<g clip-path="url(#clip1)" clip-rule="nonzero">
<path style=" stroke:none;fill-rule:nonzero;fill:rgb(100%,100%,100%);fill-opacity:1;" d="M 26.804688 17.417969 C 26.777344 17.472656 26.765625 17.554688 26.765625 17.660156 C 26.765625 17.753906 26.785156 17.828125 26.824219 17.878906 C 26.878906 17.933594 26.945312 17.960938 27.023438 17.960938 C 27.183594 17.960938 27.316406 17.894531 27.421875 17.761719 C 27.542969 17.613281 27.625 17.539062 27.664062 17.539062 C 27.730469 17.539062 27.785156 17.585938 27.824219 17.679688 C 27.863281 17.761719 27.882812 17.859375 27.882812 17.980469 C 27.898438 18.367188 27.769531 18.75 27.503906 19.125 C 27.238281 19.484375 26.84375 19.789062 26.324219 20.027344 C 25.816406 20.253906 25.203125 20.371094 24.484375 20.371094 C 23.605469 20.371094 22.902344 20.167969 22.382812 19.765625 C 21.863281 19.351562 21.597656 18.804688 21.585938 18.121094 C 21.585938 17.625 21.703125 17.070312 21.945312 16.457031 L 23.042969 13.566406 C 23.109375 13.390625 23.144531 13.25 23.144531 13.144531 C 23.144531 12.96875 23.085938 12.835938 22.964844 12.742188 C 22.859375 12.636719 22.722656 12.582031 22.5625 12.582031 C 22.3125 12.582031 22.050781 12.703125 21.785156 12.945312 C 21.53125 13.171875 21.324219 13.546875 21.164062 14.066406 L 21.164062 14.027344 L 19.90625 18.101562 C 19.863281 18.261719 19.84375 18.402344 19.84375 18.523438 C 19.84375 18.695312 19.878906 18.835938 19.945312 18.945312 C 20.011719 19.039062 20.105469 19.132812 20.222656 19.226562 C 20.316406 19.320312 20.382812 19.398438 20.425781 19.464844 C 20.464844 19.519531 20.472656 19.59375 20.445312 19.6875 C 20.378906 19.859375 20.246094 19.988281 20.042969 20.066406 C 19.84375 20.148438 19.539062 20.1875 19.125 20.1875 L 14.566406 20.1875 C 14.21875 20.1875 13.964844 20.136719 13.804688 20.027344 C 13.644531 19.90625 13.59375 19.753906 13.644531 19.566406 C 13.699219 19.40625 13.839844 19.265625 14.066406 19.144531 C 14.265625 19.039062 14.433594 18.910156 14.566406 18.765625 C 14.699219 18.617188 14.8125 18.382812 14.90625 18.0625 L 17.945312 8.046875 C 17.984375 7.925781 18.003906 7.824219 18.003906 7.746094 C 18.003906 7.597656 17.964844 7.476562 17.886719 7.382812 C 17.816406 7.289062 17.726562 7.195312 17.605469 7.101562 C 17.472656 6.996094 17.371094 6.902344 17.304688 6.820312 C 17.25 6.742188 17.246094 6.636719 17.285156 6.5 C 17.363281 6.195312 17.785156 5.925781 18.542969 5.699219 C 19.304688 5.472656 20.097656 5.355469 20.925781 5.355469 C 21.699219 5.355469 22.265625 5.503906 22.625 5.796875 C 22.996094 6.09375 23.183594 6.496094 23.183594 7.003906 C 23.183594 7.296875 23.136719 7.585938 23.042969 7.867188 L 21.964844 11.398438 C 22.484375 10.714844 23.03125 10.242188 23.605469 9.972656 C 24.191406 9.707031 24.824219 9.570312 25.503906 9.570312 C 26.316406 9.570312 26.96875 9.820312 27.464844 10.3125 C 27.96875 10.808594 28.222656 11.453125 28.222656 12.242188 C 28.222656 12.65625 28.15625 13.0625 28.023438 13.464844 Z M 26.804688 17.417969 "/>
</g>
<path style=" stroke:none;fill-rule:nonzero;fill:rgb(100%,100%,100%);fill-opacity:1;" d="M 47.761719 17.417969 C 47.734375 17.472656 47.71875 17.554688 47.71875 17.660156 C 47.71875 17.753906 47.742188 17.828125 47.78125 17.878906 C 47.832031 17.933594 47.898438 17.960938 47.980469 17.960938 C 48.140625 17.960938 48.273438 17.894531 48.378906 17.761719 C 48.5 17.613281 48.582031 17.539062 48.621094 17.539062 C 48.6875 17.539062 48.738281 17.585938 48.78125 17.679688 C 48.820312 17.761719 48.839844 17.859375 48.839844 17.980469 C 48.851562 18.367188 48.726562 18.75 48.460938 19.125 C 48.195312 19.484375 47.800781 19.789062 47.28125 20.027344 C 46.773438 20.253906 46.160156 20.371094 45.441406 20.371094 C 44.5625 20.371094 43.859375 20.167969 43.339844 19.765625 C 42.820312 19.351562 42.554688 18.804688 42.539062 18.121094 C 42.539062 17.625 42.660156 17.070312 42.902344 16.457031 L 44 13.566406 C 44.066406 13.390625 44.101562 13.25 44.101562 13.144531 C 44.101562 12.96875 44.039062 12.835938 43.921875 12.742188 C 43.8125 12.636719 43.679688 12.582031 43.519531 12.582031 C 43.292969 12.582031 43.0625 12.683594 42.820312 12.882812 C 42.582031 13.085938 42.367188 13.398438 42.179688 13.828125 L 41.082031 17.417969 C 41.054688 17.472656 41.042969 17.554688 41.042969 17.660156 C 41.042969 17.753906 41.0625 17.828125 41.101562 17.878906 C 41.15625 17.933594 41.222656 17.960938 41.300781 17.960938 C 41.460938 17.960938 41.59375 17.894531 41.699219 17.761719 C 41.820312 17.613281 41.902344 17.539062 41.941406 17.539062 C 42.007812 17.539062 42.0625 17.585938 42.101562 17.679688 C 42.140625 17.761719 42.160156 17.859375 42.160156 17.980469 C 42.175781 18.367188 42.046875 18.75 41.78125 19.125 C 41.515625 19.484375 41.121094 19.789062 40.601562 20.027344 C 40.09375 20.253906 39.480469 20.371094 38.761719 20.371094 C 37.882812 20.371094 37.179688 20.167969 36.660156 19.765625 C 36.140625 19.351562 35.875 18.804688 35.863281 18.121094 C 35.863281 17.625 35.980469 17.070312 36.222656 16.457031 L 37.320312 13.566406 C 37.386719 13.390625 37.421875 13.25 37.421875 13.144531 C 37.421875 12.96875 37.363281 12.835938 37.242188 12.742188 C 37.136719 12.636719 37 12.582031 36.839844 12.582031 C 36.613281 12.582031 36.382812 12.683594 36.140625 12.882812 C 35.902344 13.070312 35.703125 13.378906 35.542969 13.804688 L 34.222656 18.101562 C 34.167969 18.25 34.140625 18.390625 34.140625 18.523438 C 34.140625 18.683594 34.175781 18.816406 34.242188 18.925781 C 34.308594 19.019531 34.402344 19.117188 34.523438 19.226562 C 34.617188 19.304688 34.683594 19.378906 34.722656 19.445312 C 34.761719 19.511719 34.769531 19.59375 34.742188 19.6875 C 34.6875 19.859375 34.5625 19.988281 34.363281 20.066406 C 34.160156 20.148438 33.847656 20.1875 33.421875 20.1875 L 28.863281 20.1875 C 28.515625 20.1875 28.269531 20.136719 28.121094 20.027344 C 27.960938 19.90625 27.902344 19.753906 27.941406 19.566406 C 27.996094 19.40625 28.136719 19.265625 28.363281 19.144531 C 28.5625 19.039062 28.730469 18.910156 28.863281 18.765625 C 28.996094 18.617188 29.109375 18.382812 29.203125 18.0625 L 30.980469 12.261719 C 31.007812 12.195312 31.023438 12.101562 31.023438 11.980469 C 31.023438 11.832031 30.988281 11.71875 30.921875 11.640625 C 30.867188 11.558594 30.777344 11.457031 30.640625 11.339844 C 30.507812 11.230469 30.414062 11.136719 30.363281 11.058594 C 30.308594 10.976562 30.300781 10.871094 30.34375 10.734375 C 30.421875 10.429688 30.84375 10.160156 31.601562 9.933594 C 32.363281 9.691406 33.15625 9.570312 33.980469 9.570312 C 34.636719 9.570312 35.148438 9.753906 35.523438 10.113281 C 35.910156 10.476562 36.09375 10.96875 36.082031 11.597656 C 36.628906 10.835938 37.203125 10.308594 37.800781 10.011719 C 38.414062 9.71875 39.074219 9.570312 39.78125 9.570312 C 40.554688 9.570312 41.179688 9.800781 41.660156 10.253906 C 42.152344 10.695312 42.425781 11.277344 42.480469 12 C 43.054688 11.089844 43.667969 10.460938 44.320312 10.113281 C 44.972656 9.753906 45.6875 9.570312 46.460938 9.570312 C 47.273438 9.570312 47.925781 9.820312 48.421875 10.3125 C 48.925781 10.808594 49.179688 11.453125 49.179688 12.242188 C 49.179688 12.65625 49.113281 13.0625 48.980469 13.464844 Z M 47.761719 17.417969 "/>
<g clip-path="url(#clip2)" clip-rule="nonzero">
<path style=" stroke:none;fill-rule:nonzero;fill:rgb(100%,100%,100%);fill-opacity:1;" d="M 60.101562 9.570312 C 60.6875 9.570312 61.152344 9.8125 61.5 10.292969 C 61.859375 10.761719 62.039062 11.40625 62.039062 12.222656 C 62.039062 12.929688 61.914062 13.691406 61.660156 14.507812 C 61.167969 16.15625 60.375 17.707031 59.28125 19.164062 C 58.199219 20.625 56.953125 21.792969 55.539062 22.675781 C 54.140625 23.558594 52.742188 24.003906 51.339844 24.003906 C 50.648438 24.003906 50.046875 23.882812 49.542969 23.640625 C 49.046875 23.398438 48.675781 23.078125 48.421875 22.675781 C 48.15625 22.277344 48.023438 21.847656 48.023438 21.394531 C 48.023438 21.191406 48.054688 20.972656 48.121094 20.730469 C 48.242188 20.355469 48.441406 20.066406 48.722656 19.867188 C 49 19.667969 49.335938 19.566406 49.722656 19.566406 C 50.335938 19.566406 50.835938 19.773438 51.222656 20.1875 C 51.621094 20.617188 51.875 21.199219 51.980469 21.933594 C 52.835938 21.894531 53.621094 21.527344 54.339844 20.832031 C 53.660156 20.710938 53.15625 20.484375 52.820312 20.148438 C 52.5 19.800781 52.28125 19.265625 52.160156 18.542969 L 51.363281 13.625 C 51.320312 13.371094 51.261719 13.199219 51.179688 13.105469 C 51.113281 12.996094 51.023438 12.945312 50.902344 12.945312 C 50.808594 12.945312 50.695312 12.992188 50.5625 13.085938 C 50.441406 13.175781 50.355469 13.222656 50.300781 13.222656 C 50.195312 13.222656 50.140625 13.109375 50.140625 12.882812 C 50.140625 12.695312 50.175781 12.496094 50.242188 12.28125 C 50.480469 11.519531 50.929688 10.875 51.582031 10.355469 C 52.234375 9.820312 52.996094 9.550781 53.859375 9.550781 C 54.714844 9.550781 55.339844 9.804688 55.742188 10.3125 C 56.152344 10.824219 56.421875 11.605469 56.539062 12.664062 L 57.140625 17.078125 C 57.179688 17.414062 57.300781 17.578125 57.5 17.578125 C 57.742188 17.578125 58.019531 17.367188 58.339844 16.9375 C 58.660156 16.496094 58.972656 15.875 59.28125 15.070312 C 58.878906 14.710938 58.574219 14.292969 58.359375 13.828125 C 58.148438 13.359375 58.039062 12.855469 58.039062 12.320312 C 58.039062 11.90625 58.09375 11.53125 58.199219 11.199219 C 58.359375 10.664062 58.609375 10.261719 58.941406 9.992188 C 59.289062 9.710938 59.675781 9.570312 60.101562 9.570312 Z M 60.101562 9.570312 "/>
</g>
<g clip-path="url(#clip3)" clip-rule="nonzero">
<path style=" stroke:none;fill-rule:nonzero;fill:rgb(100%,100%,100%);fill-opacity:1;" d="M 70.0625 5.355469 C 71.488281 5.355469 72.554688 5.578125 73.261719 6.019531 C 73.980469 6.449219 74.339844 6.976562 74.339844 7.605469 C 74.339844 8.113281 74.128906 8.507812 73.699219 8.789062 C 73.289062 9.058594 72.742188 9.191406 72.0625 9.191406 C 71.433594 9.191406 70.949219 9.035156 70.601562 8.730469 C 70.253906 8.421875 70.082031 8.039062 70.082031 7.585938 C 70.082031 7.304688 70.167969 7.007812 70.339844 6.703125 C 69.941406 6.703125 69.609375 6.800781 69.339844 7.003906 C 69.074219 7.191406 68.867188 7.519531 68.722656 7.984375 C 68.640625 8.28125 68.601562 8.554688 68.601562 8.808594 C 68.601562 9.128906 68.65625 9.382812 68.761719 9.570312 C 68.882812 9.746094 69.046875 9.832031 69.261719 9.832031 L 70.441406 9.832031 C 71.136719 9.832031 71.480469 10.046875 71.480469 10.476562 C 71.480469 10.527344 71.46875 10.609375 71.441406 10.714844 C 71.363281 11.011719 71.195312 11.230469 70.941406 11.378906 C 70.703125 11.523438 70.335938 11.597656 69.839844 11.597656 L 69.242188 11.597656 L 67.261719 18.101562 C 67.222656 18.261719 67.203125 18.402344 67.203125 18.523438 C 67.203125 18.695312 67.234375 18.835938 67.300781 18.945312 C 67.367188 19.039062 67.460938 19.132812 67.582031 19.226562 C 67.675781 19.320312 67.742188 19.398438 67.78125 19.464844 C 67.820312 19.519531 67.828125 19.59375 67.800781 19.6875 C 67.734375 19.859375 67.601562 19.988281 67.402344 20.066406 C 67.203125 20.148438 66.894531 20.1875 66.480469 20.1875 L 61.921875 20.1875 C 61.574219 20.1875 61.324219 20.136719 61.164062 20.027344 C 61.003906 19.90625 60.949219 19.753906 61.003906 19.566406 C 61.054688 19.40625 61.195312 19.265625 61.421875 19.144531 C 61.621094 19.039062 61.789062 18.910156 61.921875 18.765625 C 62.054688 18.617188 62.167969 18.382812 62.261719 18.0625 L 63.824219 12.921875 C 63.890625 12.722656 63.921875 12.515625 63.921875 12.300781 C 63.921875 12.035156 63.863281 11.828125 63.742188 11.679688 C 63.636719 11.519531 63.46875 11.34375 63.242188 11.15625 C 63.097656 11.035156 62.984375 10.9375 62.902344 10.855469 C 62.835938 10.761719 62.800781 10.65625 62.800781 10.535156 C 62.789062 10.28125 62.875 10.101562 63.0625 9.992188 C 63.261719 9.886719 63.636719 9.832031 64.183594 9.832031 L 64.683594 9.832031 C 64.589844 9.5 64.542969 9.164062 64.542969 8.828125 C 64.542969 8.496094 64.601562 8.148438 64.722656 7.785156 C 64.976562 7.101562 65.515625 6.527344 66.34375 6.058594 C 67.183594 5.589844 68.421875 5.355469 70.0625 5.355469 Z M 70.0625 5.355469 "/>
</g>
<path style=" stroke:none;fill-rule:nonzero;fill:rgb(100%,100%,100%);fill-opacity:1;" d="M 77.960938 9.570312 C 79.773438 9.570312 81.105469 9.941406 81.960938 10.675781 C 82.828125 11.410156 83.261719 12.375 83.261719 13.566406 C 83.261719 13.96875 83.207031 14.414062 83.101562 14.910156 C 82.847656 16.007812 82.375 16.972656 81.679688 17.800781 C 80.988281 18.617188 80.132812 19.253906 79.121094 19.707031 C 78.121094 20.148438 77.035156 20.371094 75.859375 20.371094 C 74.007812 20.371094 72.632812 20 71.742188 19.265625 C 70.863281 18.515625 70.421875 17.527344 70.421875 16.296875 C 70.421875 15.878906 70.476562 15.417969 70.582031 14.910156 C 70.835938 13.867188 71.316406 12.945312 72.019531 12.140625 C 72.742188 11.324219 73.613281 10.695312 74.640625 10.253906 C 75.679688 9.800781 76.789062 9.570312 77.960938 9.570312 Z M 77.902344 11.359375 C 77.621094 11.359375 77.320312 11.613281 77 12.121094 C 76.695312 12.617188 76.328125 13.558594 75.902344 14.949219 C 75.472656 16.34375 75.261719 17.320312 75.261719 17.878906 C 75.261719 18.175781 75.308594 18.375 75.402344 18.484375 C 75.496094 18.578125 75.621094 18.625 75.78125 18.625 C 76.0625 18.648438 76.347656 18.410156 76.640625 17.902344 C 76.949219 17.390625 77.328125 16.402344 77.78125 14.929688 C 78.195312 13.632812 78.402344 12.6875 78.402344 12.101562 C 78.402344 11.820312 78.355469 11.625 78.261719 11.519531 C 78.179688 11.410156 78.0625 11.359375 77.902344 11.359375 Z M 77.902344 11.359375 "/>
<path style=" stroke:none;fill-rule:nonzero;fill:rgb(100%,100%,100%);fill-opacity:1;" d="M 91.082031 9.570312 C 92.898438 9.570312 94.230469 9.941406 95.082031 10.675781 C 95.949219 11.410156 96.382812 12.375 96.382812 13.566406 C 96.382812 13.96875 96.328125 14.414062 96.222656 14.910156 C 95.96875 16.007812 95.496094 16.972656 94.804688 17.800781 C 94.109375 18.617188 93.257812 19.253906 92.242188 19.707031 C 91.242188 20.148438 90.15625 20.371094 88.984375 20.371094 C 87.132812 20.371094 85.757812 20 84.863281 19.265625 C 83.984375 18.515625 83.542969 17.527344 83.542969 16.296875 C 83.542969 15.878906 83.597656 15.417969 83.703125 14.910156 C 83.957031 13.867188 84.4375 12.945312 85.144531 12.140625 C 85.863281 11.324219 86.738281 10.695312 87.765625 10.253906 C 88.804688 9.800781 89.910156 9.570312 91.082031 9.570312 Z M 91.023438 11.359375 C 90.742188 11.359375 90.445312 11.613281 90.125 12.121094 C 89.816406 12.617188 89.449219 13.558594 89.023438 14.949219 C 88.597656 16.34375 88.382812 17.320312 88.382812 17.878906 C 88.382812 18.175781 88.429688 18.375 88.523438 18.484375 C 88.617188 18.578125 88.746094 18.625 88.902344 18.625 C 89.183594 18.648438 89.472656 18.410156 89.765625 17.902344 C 90.070312 17.390625 90.449219 16.402344 90.902344 14.929688 C 91.316406 13.632812 91.523438 12.6875 91.523438 12.101562 C 91.523438 11.820312 91.476562 11.625 91.382812 11.519531 C 91.304688 11.410156 91.183594 11.359375 91.023438 11.359375 Z M 91.023438 11.359375 "/>
<g clip-path="url(#clip4)" clip-rule="nonzero">
<path style=" stroke:none;fill-rule:nonzero;fill:rgb(100%,100%,100%);fill-opacity:1;" d="M 107.648438 17.296875 C 107.621094 17.40625 107.605469 17.480469 107.605469 17.519531 C 107.605469 17.613281 107.632812 17.6875 107.6875 17.738281 C 107.738281 17.792969 107.808594 17.820312 107.886719 17.820312 C 108.046875 17.820312 108.179688 17.753906 108.285156 17.621094 C 108.40625 17.472656 108.488281 17.398438 108.527344 17.398438 C 108.59375 17.398438 108.648438 17.445312 108.6875 17.539062 C 108.726562 17.632812 108.746094 17.738281 108.746094 17.859375 C 108.761719 18.222656 108.621094 18.589844 108.328125 18.964844 C 108.046875 19.339844 107.667969 19.648438 107.1875 19.886719 C 106.707031 20.128906 106.1875 20.25 105.628906 20.25 C 104.960938 20.25 104.378906 20.121094 103.886719 19.867188 C 103.394531 19.613281 103.054688 19.277344 102.867188 18.863281 C 102.507812 19.332031 102.09375 19.679688 101.628906 19.90625 C 101.160156 20.136719 100.667969 20.25 100.148438 20.25 C 99.535156 20.25 98.960938 20.09375 98.429688 19.789062 C 97.90625 19.480469 97.488281 19.042969 97.167969 18.484375 C 96.863281 17.90625 96.707031 17.257812 96.707031 16.535156 C 96.707031 15.320312 96.933594 14.175781 97.386719 13.105469 C 97.855469 12.019531 98.5 11.152344 99.328125 10.496094 C 100.15625 9.824219 101.09375 9.492188 102.148438 9.492188 C 102.722656 9.492188 103.207031 9.558594 103.605469 9.691406 C 104.019531 9.824219 104.394531 10.027344 104.726562 10.292969 L 105.40625 8.046875 C 105.445312 7.925781 105.46875 7.824219 105.46875 7.746094 C 105.46875 7.597656 105.425781 7.476562 105.347656 7.382812 C 105.28125 7.289062 105.1875 7.195312 105.066406 7.101562 C 104.933594 6.996094 104.832031 6.902344 104.765625 6.820312 C 104.714844 6.742188 104.707031 6.636719 104.746094 6.5 C 104.828125 6.195312 105.246094 5.925781 106.007812 5.699219 C 106.765625 5.472656 107.558594 5.355469 108.386719 5.355469 C 109.160156 5.355469 109.726562 5.503906 110.085938 5.796875 C 110.460938 6.09375 110.644531 6.496094 110.644531 7.003906 C 110.644531 7.296875 110.601562 7.585938 110.507812 7.867188 Z M 104.308594 11.660156 C 104.09375 11.472656 103.859375 11.378906 103.605469 11.378906 C 103.21875 11.378906 102.839844 11.664062 102.46875 12.242188 C 102.09375 12.816406 101.792969 13.511719 101.566406 14.328125 C 101.339844 15.144531 101.234375 15.878906 101.246094 16.535156 C 101.246094 17.273438 101.488281 17.640625 101.96875 17.640625 C 102.140625 17.640625 102.289062 17.574219 102.40625 17.4375 C 102.527344 17.292969 102.640625 17.058594 102.746094 16.738281 Z M 104.308594 11.660156 "/>
</g>
</g>
</svg>
