<?xml version="1.0" encoding="UTF-8"?>
<svg xmlns="http://www.w3.org/2000/svg" xmlns:xlink="http://www.w3.org/1999/xlink" width="1440pt" height="809.999993pt" viewBox="0 0 1440 809.999993" version="1.2">
<g id="surface1">
<path style=" stroke:none;fill-rule:nonzero;fill:rgb(100%,100%,100%);fill-opacity:1;" d="M 402.535156 370.8125 C 414.859375 370.8125 423.921875 373.304688 429.722656 378.28125 C 435.613281 383.261719 438.558594 389.78125 438.558594 397.835938 C 438.558594 400.554688 438.195312 403.585938 437.46875 406.933594 C 435.746094 414.359375 432.53125 420.878906 427.820312 426.488281 C 423.105469 432.011719 417.308594 436.3125 410.417969 439.390625 C 403.625 442.378906 396.238281 443.871094 388.261719 443.871094 C 375.667969 443.871094 366.332031 441.382812 360.261719 436.402344 C 354.28125 431.332031 351.289062 424.632812 351.289062 416.304688 C 351.289062 413.5 351.652344 410.375 352.378906 406.933594 C 354.097656 399.875 357.363281 393.628906 362.164062 388.195312 C 367.058594 382.671875 372.992188 378.417969 379.972656 375.429688 C 387.039062 372.351562 394.5625 370.8125 402.535156 370.8125 Z M 402.128906 382.898438 C 400.226562 382.898438 398.1875 384.621094 396.011719 388.058594 C 393.925781 391.410156 391.433594 397.792969 388.535156 407.207031 C 385.636719 416.621094 384.183594 423.230469 384.183594 427.03125 C 384.183594 429.023438 384.503906 430.382812 385.136719 431.105469 C 385.769531 431.742188 386.632812 432.058594 387.71875 432.058594 C 389.621094 432.238281 391.570312 430.609375 393.5625 427.167969 C 395.648438 423.730469 398.230469 417.03125 401.3125 407.070312 C 404.121094 398.289062 405.527344 391.90625 405.527344 387.925781 C 405.527344 386.023438 405.207031 384.710938 404.574219 383.988281 C 404.03125 383.261719 403.214844 382.898438 402.128906 382.898438 Z M 402.128906 382.898438 "/>
<path style=" stroke:none;fill-rule:nonzero;fill:rgb(100%,100%,100%);fill-opacity:1;" d="M 519.804688 423.910156 C 519.625 424.273438 519.535156 424.816406 519.535156 425.539062 C 519.535156 426.171875 519.667969 426.671875 519.941406 427.03125 C 520.304688 427.394531 520.757812 427.578125 521.300781 427.578125 C 522.386719 427.578125 523.292969 427.125 524.019531 426.21875 C 524.835938 425.222656 525.378906 424.722656 525.648438 424.722656 C 526.101562 424.722656 526.464844 425.042969 526.738281 425.675781 C 527.007812 426.21875 527.144531 426.898438 527.144531 427.710938 C 527.234375 430.335938 526.375 432.917969 524.5625 435.453125 C 522.75 437.898438 520.078125 439.933594 516.542969 441.5625 C 513.097656 443.101562 508.929688 443.871094 504.039062 443.871094 C 498.054688 443.871094 493.300781 442.511719 489.765625 439.796875 C 486.230469 436.992188 484.417969 433.28125 484.328125 428.664062 C 484.328125 425.3125 485.144531 421.554688 486.773438 417.390625 L 494.25 397.835938 C 494.703125 396.660156 494.929688 395.710938 494.929688 394.984375 C 494.929688 393.808594 494.523438 392.902344 493.707031 392.269531 C 492.980469 391.546875 492.074219 391.183594 490.988281 391.183594 C 489.265625 391.183594 487.5 392 485.6875 393.628906 C 483.964844 395.167969 482.558594 397.703125 481.472656 401.230469 L 481.472656 400.960938 L 472.910156 428.527344 C 472.636719 429.613281 472.5 430.5625 472.5 431.378906 C 472.5 432.554688 472.726562 433.507812 473.179688 434.230469 C 473.632812 434.863281 474.269531 435.496094 475.085938 436.132812 C 475.71875 436.765625 476.171875 437.308594 476.445312 437.761719 C 476.714844 438.121094 476.761719 438.621094 476.578125 439.253906 C 476.125 440.429688 475.21875 441.292969 473.859375 441.835938 C 472.5 442.378906 470.417969 442.648438 467.609375 442.648438 L 436.617188 442.648438 C 434.261719 442.648438 432.539062 442.289062 431.449219 441.5625 C 430.363281 440.75 430 439.707031 430.363281 438.441406 C 430.726562 437.351562 431.675781 436.402344 433.21875 435.589844 C 434.578125 434.863281 435.710938 434.003906 436.617188 433.007812 C 437.523438 432.011719 438.292969 430.429688 438.925781 428.253906 L 459.589844 360.492188 C 459.859375 359.679688 459.996094 359 459.996094 358.457031 C 459.996094 357.460938 459.722656 356.644531 459.179688 356.011719 C 458.726562 355.378906 458.09375 354.746094 457.277344 354.113281 C 456.371094 353.386719 455.691406 352.753906 455.238281 352.210938 C 454.875 351.667969 454.832031 350.941406 455.101562 350.039062 C 455.644531 347.957031 458.5 346.144531 463.667969 344.605469 C 468.832031 343.066406 474.222656 342.296875 479.839844 342.296875 C 485.097656 342.296875 488.949219 343.292969 491.394531 345.285156 C 493.933594 347.277344 495.203125 349.992188 495.203125 353.433594 C 495.203125 355.425781 494.882812 357.371094 494.25 359.273438 L 486.910156 383.171875 C 490.445312 378.554688 494.160156 375.339844 498.054688 373.53125 C 502.042969 371.71875 506.347656 370.8125 510.96875 370.8125 C 516.496094 370.8125 520.9375 372.488281 524.289062 375.839844 C 527.734375 379.1875 529.457031 383.535156 529.457031 388.875 C 529.457031 391.679688 529.003906 394.441406 528.097656 397.160156 Z M 519.804688 423.910156 "/>
<path style=" stroke:none;fill-rule:nonzero;fill:rgb(100%,100%,100%);fill-opacity:1;" d="M 662.253906 423.910156 C 662.074219 424.273438 661.984375 424.816406 661.984375 425.539062 C 661.984375 426.171875 662.117188 426.671875 662.390625 427.03125 C 662.753906 427.394531 663.207031 427.578125 663.75 427.578125 C 664.835938 427.578125 665.742188 427.125 666.46875 426.21875 C 667.285156 425.222656 667.828125 424.722656 668.101562 424.722656 C 668.554688 424.722656 668.914062 425.042969 669.1875 425.675781 C 669.460938 426.21875 669.59375 426.898438 669.59375 427.710938 C 669.6875 430.335938 668.824219 432.917969 667.011719 435.453125 C 665.199219 437.898438 662.527344 439.933594 658.992188 441.5625 C 655.550781 443.101562 651.378906 443.871094 646.488281 443.871094 C 640.507812 443.871094 635.75 442.511719 632.214844 439.796875 C 628.679688 436.992188 626.867188 433.28125 626.777344 428.664062 C 626.777344 425.3125 627.59375 421.554688 629.222656 417.390625 L 636.699219 397.835938 C 637.152344 396.660156 637.378906 395.710938 637.378906 394.984375 C 637.378906 393.808594 636.972656 392.902344 636.15625 392.269531 C 635.429688 391.546875 634.523438 391.183594 633.4375 391.183594 C 631.898438 391.183594 630.3125 391.863281 628.679688 393.21875 C 627.050781 394.578125 625.597656 396.707031 624.332031 399.601562 L 616.855469 423.910156 C 616.671875 424.273438 616.582031 424.816406 616.582031 425.539062 C 616.582031 426.171875 616.71875 426.671875 616.988281 427.03125 C 617.351562 427.394531 617.804688 427.578125 618.347656 427.578125 C 619.4375 427.578125 620.34375 427.125 621.066406 426.21875 C 621.882812 425.222656 622.425781 424.722656 622.699219 424.722656 C 623.152344 424.722656 623.515625 425.042969 623.785156 425.675781 C 624.058594 426.21875 624.195312 426.898438 624.195312 427.710938 C 624.285156 430.335938 623.425781 432.917969 621.613281 435.453125 C 619.800781 437.898438 617.125 439.933594 613.589844 441.5625 C 610.148438 443.101562 605.980469 443.871094 601.085938 443.871094 C 595.105469 443.871094 590.347656 442.511719 586.8125 439.796875 C 583.28125 436.992188 581.46875 433.28125 581.375 428.664062 C 581.375 425.3125 582.191406 421.554688 583.824219 417.390625 L 591.300781 397.835938 C 591.753906 396.660156 591.980469 395.710938 591.980469 394.984375 C 591.980469 393.808594 591.570312 392.902344 590.753906 392.269531 C 590.03125 391.546875 589.125 391.183594 588.035156 391.183594 C 586.496094 391.183594 584.910156 391.863281 583.28125 393.21875 C 581.648438 394.488281 580.289062 396.570312 579.203125 399.46875 L 570.230469 428.527344 C 569.867188 429.523438 569.6875 430.472656 569.6875 431.378906 C 569.6875 432.464844 569.914062 433.371094 570.367188 434.09375 C 570.820312 434.726562 571.453125 435.40625 572.269531 436.132812 C 572.902344 436.675781 573.355469 437.171875 573.628906 437.625 C 573.898438 438.078125 573.945312 438.621094 573.765625 439.253906 C 573.402344 440.429688 572.539062 441.292969 571.179688 441.835938 C 569.820312 442.378906 567.691406 442.648438 564.792969 442.648438 L 533.800781 442.648438 C 531.445312 442.648438 529.769531 442.289062 528.769531 441.5625 C 527.683594 440.75 527.277344 439.707031 527.546875 438.441406 C 527.910156 437.351562 528.863281 436.402344 530.402344 435.589844 C 531.761719 434.863281 532.894531 434.003906 533.800781 433.007812 C 534.707031 432.011719 535.476562 430.429688 536.113281 428.253906 L 548.210938 389.011719 C 548.390625 388.558594 548.480469 387.925781 548.480469 387.109375 C 548.480469 386.113281 548.253906 385.34375 547.800781 384.800781 C 547.4375 384.257812 546.804688 383.578125 545.898438 382.765625 C 544.992188 382.039062 544.359375 381.40625 543.996094 380.863281 C 543.632812 380.320312 543.585938 379.59375 543.859375 378.691406 C 544.402344 376.609375 547.257812 374.796875 552.421875 373.257812 C 557.589844 371.628906 562.980469 370.8125 568.597656 370.8125 C 573.039062 370.8125 576.527344 372.035156 579.066406 374.480469 C 581.695312 376.925781 582.960938 380.273438 582.871094 384.53125 C 586.585938 379.371094 590.484375 375.792969 594.5625 373.800781 C 598.730469 371.808594 603.214844 370.8125 608.019531 370.8125 C 613.273438 370.8125 617.535156 372.351562 620.796875 375.429688 C 624.148438 378.417969 626.007812 382.355469 626.371094 387.246094 C 630.265625 381.089844 634.433594 376.835938 638.875 374.480469 C 643.316406 372.035156 648.164062 370.8125 653.417969 370.8125 C 658.945312 370.8125 663.386719 372.488281 666.742188 375.839844 C 670.183594 379.1875 671.90625 383.535156 671.90625 388.875 C 671.90625 391.679688 671.453125 394.441406 670.546875 397.160156 Z M 662.253906 423.910156 "/>
<path style=" stroke:none;fill-rule:nonzero;fill:rgb(100%,100%,100%);fill-opacity:1;" d="M 746.136719 370.8125 C 750.125 370.8125 753.296875 372.445312 755.652344 375.703125 C 758.097656 378.871094 759.320312 383.21875 759.320312 388.738281 C 759.320312 393.539062 758.460938 398.699219 756.738281 404.21875 C 753.386719 415.355469 747.996094 425.855469 740.5625 435.722656 C 733.222656 445.589844 724.75 453.511719 715.144531 459.488281 C 705.628906 465.460938 696.113281 468.449219 686.597656 468.449219 C 681.886719 468.449219 677.808594 467.636719 674.363281 466.007812 C 671.011719 464.375 668.472656 462.203125 666.75 459.488281 C 664.9375 456.773438 664.03125 453.875 664.03125 450.796875 C 664.03125 449.4375 664.257812 447.945312 664.710938 446.316406 C 665.527344 443.78125 666.886719 441.835938 668.789062 440.476562 C 670.695312 439.117188 672.960938 438.441406 675.585938 438.441406 C 679.757812 438.441406 683.152344 439.84375 685.78125 442.648438 C 688.5 445.546875 690.222656 449.484375 690.949219 454.464844 C 696.746094 454.191406 702.09375 451.703125 706.988281 446.996094 C 702.367188 446.179688 698.921875 444.640625 696.65625 442.378906 C 694.480469 440.023438 692.984375 436.402344 692.171875 431.515625 L 686.734375 398.246094 C 686.460938 396.523438 686.054688 395.347656 685.511719 394.714844 C 685.058594 393.988281 684.421875 393.628906 683.609375 393.628906 C 682.972656 393.628906 682.203125 393.945312 681.296875 394.578125 C 680.480469 395.210938 679.890625 395.527344 679.527344 395.527344 C 678.804688 395.527344 678.441406 394.757812 678.441406 393.21875 C 678.441406 391.953125 678.667969 390.59375 679.121094 389.148438 C 680.753906 383.988281 683.789062 379.640625 688.230469 376.109375 C 692.667969 372.488281 697.835938 370.679688 703.726562 370.679688 C 709.523438 370.679688 713.785156 372.398438 716.503906 375.839844 C 719.3125 379.277344 721.125 384.574219 721.941406 391.726562 L 726.015625 421.601562 C 726.289062 423.863281 727.105469 424.996094 728.464844 424.996094 C 730.097656 424.996094 732 423.546875 734.175781 420.652344 C 736.351562 417.664062 738.480469 413.453125 740.5625 408.023438 C 737.84375 405.578125 735.761719 402.769531 734.3125 399.601562 C 732.859375 396.433594 732.136719 393.039062 732.136719 389.417969 C 732.136719 386.613281 732.5 384.078125 733.222656 381.8125 C 734.3125 378.191406 735.988281 375.476562 738.253906 373.664062 C 740.609375 371.765625 743.238281 370.8125 746.136719 370.8125 Z M 746.136719 370.8125 "/>
<path style=" stroke:none;fill-rule:nonzero;fill:rgb(100%,100%,100%);fill-opacity:1;" d="M 813.84375 342.296875 C 823.542969 342.296875 830.792969 343.792969 835.59375 346.777344 C 840.488281 349.675781 842.933594 353.25 842.933594 357.507812 C 842.933594 360.945312 841.484375 363.617188 838.585938 365.519531 C 835.773438 367.328125 832.058594 368.234375 827.4375 368.234375 C 823.179688 368.234375 819.871094 367.191406 817.515625 365.109375 C 815.160156 363.027344 813.980469 360.449219 813.980469 357.371094 C 813.980469 355.46875 814.570312 353.476562 815.75 351.394531 C 813.03125 351.394531 810.765625 352.074219 808.953125 353.433594 C 807.140625 354.699219 805.734375 356.917969 804.738281 360.085938 C 804.195312 362.078125 803.921875 363.933594 803.921875 365.652344 C 803.921875 367.828125 804.285156 369.546875 805.007812 370.8125 C 805.824219 371.992188 806.957031 372.578125 808.40625 372.578125 L 816.429688 372.578125 C 821.140625 372.578125 823.496094 374.027344 823.496094 376.925781 C 823.496094 377.289062 823.40625 377.832031 823.222656 378.554688 C 822.679688 380.546875 821.546875 382.039062 819.824219 383.035156 C 818.195312 384.03125 815.703125 384.53125 812.351562 384.53125 L 808.273438 384.53125 L 794.816406 428.527344 C 794.542969 429.613281 794.40625 430.5625 794.40625 431.378906 C 794.40625 432.554688 794.632812 433.507812 795.085938 434.230469 C 795.539062 434.863281 796.175781 435.496094 796.988281 436.132812 C 797.625 436.765625 798.078125 437.308594 798.347656 437.761719 C 798.621094 438.121094 798.667969 438.621094 798.484375 439.253906 C 798.03125 440.429688 797.125 441.292969 795.765625 441.835938 C 794.40625 442.378906 792.324219 442.648438 789.511719 442.648438 L 758.523438 442.648438 C 756.164062 442.648438 754.445312 442.289062 753.355469 441.5625 C 752.269531 440.75 751.90625 439.707031 752.269531 438.441406 C 752.632812 437.351562 753.582031 436.402344 755.125 435.589844 C 756.484375 434.863281 757.617188 434.003906 758.523438 433.007812 C 759.429688 432.011719 760.199219 430.429688 760.832031 428.253906 L 771.433594 393.492188 C 771.886719 392.132812 772.113281 390.730469 772.113281 389.28125 C 772.113281 387.472656 771.707031 386.070312 770.890625 385.074219 C 770.167969 383.988281 769.035156 382.808594 767.492188 381.542969 C 766.496094 380.726562 765.726562 380.046875 765.183594 379.503906 C 764.730469 378.871094 764.503906 378.148438 764.503906 377.332031 C 764.410156 375.613281 765 374.390625 766.269531 373.664062 C 767.628906 372.941406 770.167969 372.578125 773.882812 372.578125 L 777.28125 372.578125 C 776.644531 370.316406 776.328125 368.054688 776.328125 365.789062 C 776.328125 363.527344 776.734375 361.171875 777.550781 358.730469 C 779.273438 354.113281 782.945312 350.21875 788.5625 347.050781 C 794.269531 343.882812 802.699219 342.296875 813.84375 342.296875 Z M 813.84375 342.296875 "/>
<path style=" stroke:none;fill-rule:nonzero;fill:rgb(100%,100%,100%);fill-opacity:1;" d="M 867.539062 370.8125 C 879.863281 370.8125 888.925781 373.304688 894.722656 378.28125 C 900.613281 383.261719 903.558594 389.78125 903.558594 397.835938 C 903.558594 400.554688 903.195312 403.585938 902.472656 406.933594 C 900.75 414.359375 897.53125 420.878906 892.820312 426.488281 C 888.109375 432.011719 882.308594 436.3125 875.421875 439.390625 C 868.625 442.378906 861.238281 443.871094 853.265625 443.871094 C 840.667969 443.871094 831.335938 441.382812 825.261719 436.402344 C 819.28125 431.332031 816.292969 424.632812 816.292969 416.304688 C 816.292969 413.5 816.65625 410.375 817.378906 406.933594 C 819.101562 399.875 822.363281 393.628906 827.167969 388.195312 C 832.058594 382.671875 837.996094 378.417969 844.972656 375.429688 C 852.042969 372.351562 859.5625 370.8125 867.539062 370.8125 Z M 867.128906 382.898438 C 865.226562 382.898438 863.1875 384.621094 861.011719 388.058594 C 858.929688 391.410156 856.4375 397.792969 853.535156 407.207031 C 850.636719 416.621094 849.1875 423.230469 849.1875 427.03125 C 849.1875 429.023438 849.503906 430.382812 850.136719 431.105469 C 850.773438 431.742188 851.632812 432.058594 852.722656 432.058594 C 854.625 432.238281 856.574219 430.609375 858.566406 427.167969 C 860.652344 423.730469 863.234375 417.03125 866.3125 407.070312 C 869.125 398.289062 870.527344 391.90625 870.527344 387.925781 C 870.527344 386.023438 870.210938 384.710938 869.578125 383.988281 C 869.03125 383.261719 868.21875 382.898438 867.128906 382.898438 Z M 867.128906 382.898438 "/>
<path style=" stroke:none;fill-rule:nonzero;fill:rgb(100%,100%,100%);fill-opacity:1;" d="M 956.742188 370.8125 C 969.066406 370.8125 978.128906 373.304688 983.929688 378.28125 C 989.816406 383.261719 992.761719 389.78125 992.761719 397.835938 C 992.761719 400.554688 992.402344 403.585938 991.675781 406.933594 C 989.953125 414.359375 986.738281 420.878906 982.023438 426.488281 C 977.3125 432.011719 971.511719 436.3125 964.625 439.390625 C 957.828125 442.378906 950.445312 443.871094 942.46875 443.871094 C 929.871094 443.871094 920.539062 441.382812 914.46875 436.402344 C 908.488281 431.332031 905.496094 424.632812 905.496094 416.304688 C 905.496094 413.5 905.859375 410.375 906.582031 406.933594 C 908.304688 399.875 911.566406 393.628906 916.371094 388.195312 C 921.265625 382.671875 927.199219 378.417969 934.175781 375.429688 C 941.246094 372.351562 948.765625 370.8125 956.742188 370.8125 Z M 956.332031 382.898438 C 954.429688 382.898438 952.390625 384.621094 950.21875 388.058594 C 948.132812 391.410156 945.640625 397.792969 942.742188 407.207031 C 939.839844 416.621094 938.390625 423.230469 938.390625 427.03125 C 938.390625 429.023438 938.707031 430.382812 939.34375 431.105469 C 939.976562 431.742188 940.835938 432.058594 941.925781 432.058594 C 943.828125 432.238281 945.777344 430.609375 947.769531 427.167969 C 949.855469 423.730469 952.4375 417.03125 955.519531 407.070312 C 958.328125 398.289062 959.730469 391.90625 959.730469 387.925781 C 959.730469 386.023438 959.414062 384.710938 958.78125 383.988281 C 958.238281 383.261719 957.421875 382.898438 956.332031 382.898438 Z M 956.332031 382.898438 "/>
<path style=" stroke:none;fill-rule:nonzero;fill:rgb(100%,100%,100%);fill-opacity:1;" d="M 1069.324219 423.09375 C 1069.144531 423.820312 1069.054688 424.316406 1069.054688 424.589844 C 1069.054688 425.222656 1069.234375 425.71875 1069.597656 426.082031 C 1069.960938 426.445312 1070.414062 426.625 1070.957031 426.625 C 1072.042969 426.625 1072.949219 426.171875 1073.675781 425.269531 C 1074.492188 424.273438 1075.035156 423.773438 1075.308594 423.773438 C 1075.761719 423.773438 1076.121094 424.089844 1076.394531 424.722656 C 1076.667969 425.359375 1076.800781 426.082031 1076.800781 426.898438 C 1076.894531 429.339844 1075.941406 431.832031 1073.949219 434.367188 C 1072.042969 436.902344 1069.460938 438.984375 1066.199219 440.613281 C 1062.9375 442.242188 1059.402344 443.058594 1055.597656 443.058594 C 1051.066406 443.058594 1047.125 442.195312 1043.769531 440.476562 C 1040.417969 438.757812 1038.105469 436.492188 1036.839844 433.6875 C 1034.390625 436.855469 1031.582031 439.210938 1028.410156 440.75 C 1025.238281 442.289062 1021.886719 443.058594 1018.351562 443.058594 C 1014.183594 443.058594 1010.285156 442.015625 1006.660156 439.933594 C 1003.128906 437.851562 1000.273438 434.910156 998.097656 431.105469 C 996.015625 427.214844 994.972656 422.824219 994.972656 417.933594 C 994.972656 409.695312 996.511719 401.957031 999.59375 394.714844 C 1002.765625 387.382812 1007.160156 381.496094 1012.777344 377.0625 C 1018.398438 372.535156 1024.785156 370.269531 1031.945312 370.269531 C 1035.839844 370.269531 1039.148438 370.722656 1041.867188 371.628906 C 1044.675781 372.535156 1047.214844 373.890625 1049.480469 375.703125 L 1054.101562 360.492188 C 1054.375 359.679688 1054.507812 359 1054.507812 358.457031 C 1054.507812 357.460938 1054.238281 356.644531 1053.695312 356.011719 C 1053.242188 355.378906 1052.605469 354.746094 1051.789062 354.113281 C 1050.882812 353.386719 1050.203125 352.753906 1049.75 352.210938 C 1049.390625 351.667969 1049.34375 350.941406 1049.617188 350.039062 C 1050.160156 347.957031 1053.015625 346.144531 1058.179688 344.605469 C 1063.34375 343.066406 1068.738281 342.296875 1074.355469 342.296875 C 1079.609375 342.296875 1083.460938 343.292969 1085.910156 345.285156 C 1088.445312 347.277344 1089.714844 349.992188 1089.714844 353.433594 C 1089.714844 355.425781 1089.398438 357.371094 1088.765625 359.273438 Z M 1046.625 384.9375 C 1045.175781 383.667969 1043.589844 383.035156 1041.867188 383.035156 C 1039.238281 383.035156 1036.65625 384.980469 1034.121094 388.875 C 1031.582031 392.769531 1029.542969 397.476562 1028.003906 402.996094 C 1026.460938 408.519531 1025.738281 413.5 1025.828125 417.933594 C 1025.828125 422.914062 1027.460938 425.402344 1030.722656 425.402344 C 1031.898438 425.402344 1032.898438 424.949219 1033.710938 424.046875 C 1034.527344 423.050781 1035.296875 421.464844 1036.023438 419.292969 Z M 1046.625 384.9375 "/>
</g>
</svg>
